<svg width="1605" height="416" viewBox="0 0 1605 416" fill="none" xmlns="http://www.w3.org/2000/svg">
<g clip-path="url(#clip0_143_13)">
<path d="M221.516 202.651L116.176 343.2H116.792L62.3088 416H0V322.078L155.495 114.304L221.516 202.651ZM833.225 232.4L695.82 416H102.655L242.794 228.744L327.218 343.2H366.969L262.089 202.963L413.987 0H833.225V232.4ZM573.993 67.1541C553.636 67.1541 534.845 70.6429 517.619 77.6191C500.514 84.5955 485.638 94.3981 472.99 107.027C460.341 119.657 450.525 134.572 443.538 151.772C436.552 168.851 433.057 187.556 433.057 207.884C433.057 228.091 436.552 246.794 443.538 263.995C450.525 281.075 460.341 295.99 472.99 308.74C485.638 321.369 500.515 331.172 517.619 338.149C534.845 345.124 553.636 348.612 573.993 348.612C594.351 348.612 613.083 345.125 630.188 338.149C647.293 331.172 662.169 321.369 674.818 308.74C687.466 295.99 697.283 281.075 704.27 263.995C711.256 246.794 714.75 228.091 714.75 207.884C714.75 187.556 711.256 168.851 704.27 151.772C697.283 134.572 687.466 119.657 674.818 107.027C662.169 94.3981 647.293 84.5955 630.188 77.6191C613.083 70.6428 594.351 67.1541 573.993 67.1541ZM573.993 95.3002C589.533 95.3002 603.867 98.1274 616.998 103.781C630.247 109.313 641.751 117.191 651.508 127.416C661.265 137.519 668.794 149.427 674.095 163.139C679.515 176.851 682.225 191.766 682.225 207.884C682.225 224 679.515 238.916 674.095 252.628C668.794 266.22 661.265 278.128 651.508 288.352C641.751 298.456 630.247 306.334 616.998 311.986C603.867 317.64 589.533 320.468 573.993 320.468C558.454 320.468 544.06 317.7 530.81 312.167C517.68 306.514 506.236 298.636 496.479 288.532C486.722 278.308 479.134 266.341 473.712 252.628C468.292 238.916 465.582 224 465.582 207.884C465.582 191.766 468.292 176.851 473.712 163.139C479.134 149.427 486.722 137.519 496.479 127.416C506.236 117.191 517.68 109.313 530.81 103.781C544.061 98.1274 558.454 95.3002 573.993 95.3002ZM241.218 176.942L175.325 87.8089L241.042 0H373.641L241.218 176.942Z" fill="#FDC500"/>
<path d="M1468.85 63.1312C1482.54 63.1312 1495.04 64.6654 1506.35 67.733C1517.8 70.6612 1528.06 74.844 1537.13 80.2821C1546.35 85.5808 1554.53 91.6466 1561.65 98.4791C1568.77 105.172 1574.91 112.284 1580.08 119.813L1547.61 137.173C1539.24 125.6 1528.48 116.048 1515.36 108.519C1502.23 100.989 1486.72 97.2238 1468.85 97.2238C1454.33 97.2238 1440.93 100.083 1428.64 105.799C1416.35 111.517 1405.66 119.395 1396.59 129.434C1387.65 139.473 1380.74 151.048 1375.85 164.155C1370.96 177.262 1368.52 191.206 1368.52 205.986C1368.52 220.766 1370.96 234.78 1375.85 248.026C1380.74 261.134 1387.65 272.777 1396.59 282.956C1405.66 292.996 1416.35 300.874 1428.64 306.591C1440.93 312.308 1454.33 315.167 1468.85 315.167C1482.68 315.167 1495.32 312.797 1506.76 308.055C1518.22 303.314 1528.2 296.76 1536.72 288.394C1545.24 280.027 1551.94 270.267 1556.83 259.112C1561.71 247.957 1564.44 235.966 1564.99 223.137H1465.08V194.273H1604.58V209.332C1604.58 228.575 1601.24 246.703 1594.53 263.714C1587.83 280.586 1578.34 295.436 1566.05 308.264C1553.89 321.093 1539.58 331.132 1523.1 338.383C1506.63 345.634 1488.55 349.259 1468.85 349.259C1448.75 349.259 1430.31 345.564 1413.56 338.174C1396.8 330.644 1382.28 320.325 1369.99 307.218C1357.7 293.972 1348.2 278.703 1341.49 261.412C1334.8 244.122 1331.44 225.647 1331.44 205.986C1331.44 186.465 1334.8 168.059 1341.49 150.769C1348.2 133.478 1357.7 118.279 1369.99 105.172C1382.28 92.0647 1396.8 81.8163 1413.56 74.426C1430.31 66.8964 1448.75 63.1312 1468.85 63.1312ZM1052.82 68.1515C1067.76 68.1515 1081.31 71.2886 1093.45 77.5633C1105.74 83.6986 1115.52 92.7621 1122.78 104.754C1130.18 116.606 1133.88 131.108 1133.88 148.259C1133.88 165.271 1130.46 179.354 1123.61 190.509C1116.92 201.663 1108.81 210.1 1099.32 215.817C1089.83 221.394 1081.03 224.462 1072.92 225.02L1071.53 225.116L1159.81 343.503H1120.85L1034.38 227.529H992.073V344.239H956.254V68.1515H1052.82ZM1262.34 344.239H1226.31V68.1515H1262.34V344.239ZM992.073 200.966H1040.25C1056.73 200.966 1070.34 196.852 1081.1 188.626C1091.85 180.399 1097.22 167.222 1097.22 149.094C1097.22 130.968 1091.85 117.931 1081.1 109.983C1070.49 102.035 1056.94 98.0607 1040.46 98.0607H992.073V200.966Z" fill="#FDC500"/>
</g>
<defs>
<clipPath id="clip0_143_13">
<rect width="1605" height="416" fill="white"/>
</clipPath>
</defs>
</svg>
